#define dice6_width 8
#define dice6_height 8
static unsigned char dice6_bits[] = {
   0xff, 0xfb, 0xfb, 0xfb, 0xc3, 0xdb, 0xc3, 0xff };
