#define dice9_width 8
#define dice9_height 8
static unsigned char dice9_bits[] = {
   0xff, 0xc3, 0xdb, 0xc3, 0xdf, 0xdf, 0xdf, 0xff };
