#define dice7_width 8
#define dice7_height 8
static unsigned char dice7_bits[] = {
   0xff, 0xc3, 0xdf, 0xef, 0xef, 0xef, 0xef, 0xff };
