#define dice8_width 8
#define dice8_height 8
static unsigned char dice8_bits[] = {
   0xff, 0xe7, 0xdb, 0xe7, 0xdb, 0xdb, 0xe7, 0xff };
